<svg xmlns="http://www.w3.org/2000/svg" width="1091" height="961" viewBox="0 0 1091 961">
<g>
<path d="M 688.50 521.56 L 682.50 524.50 L 645.48 524.80 L 608.45 525.11 L 605.98 522.47 C603.62,519.96 603.50,519.24 603.50,507.58 C603.50,496.78 603.78,494.73 605.87,490.27 C607.18,487.48 609.20,484.72 610.37,484.13 C611.74,483.44 626.03,482.93 650.50,482.72 C692.22,482.35 693.33,482.21 702.98,476.02 C705.69,474.27 708.20,471.94 708.55,470.84 C708.90,469.74 709.55,449.41 709.99,425.67 C710.43,401.93 711.01,381.60 711.28,380.50 C711.55,379.40 712.08,376.59 712.47,374.25 C713.50,368.02 718.32,356.10 722.35,349.80 C731.67,335.24 748.54,321.29 776.50,305.04 C780.90,302.48 795.30,294.16 808.50,286.54 C821.70,278.92 837.61,269.55 843.86,265.71 C856.81,257.75 857.40,257.83 856.63,267.39 C856.24,272.38 855.43,274.35 851.37,280.29 C843.28,292.14 837.90,295.87 782.50,328.00 C760.74,340.62 744.98,351.21 737.90,357.94 L 732.00 363.55 L 732.00 385.54 C732.00,409.35 729.90,439.72 727.38,452.50 C720.01,489.80 707.31,512.36 688.50,521.56 ZM 340.50 586.54 C326.97,589.01 311.30,587.88 298.50,583.51 C277.67,576.40 262.43,557.91 259.28,535.93 C257.95,526.66 258.74,508.21 260.91,497.82 C264.55,480.34 277.94,444.00 280.73,444.00 C281.21,444.00 283.33,445.77 285.44,447.94 L 289.29 451.88 L 285.19 463.69 C277.65,485.39 275.78,493.59 275.83,504.81 C275.87,512.96 276.24,514.91 278.77,520.31 C286.47,536.72 305.16,546.01 330.44,545.99 C362.06,545.97 394.36,529.66 403.08,509.32 C405.08,504.65 405.08,504.38 403.40,491.54 C399.98,465.54 400.56,454.19 406.17,437.51 C409.33,428.11 415.15,416.00 416.52,416.00 C419.80,416.00 420.05,418.66 420.27,456.63 C420.49,496.54 420.25,499.47 415.28,517.00 C408.94,539.35 393.67,560.96 376.14,572.41 C364.01,580.33 355.01,583.89 340.50,586.54 ZM 432.00 589.94 C424.58,590.53 416.86,591.26 414.85,591.58 C412.68,591.91 410.93,591.70 410.53,591.04 C410.15,590.44 410.15,587.08 410.53,583.58 C411.20,577.28 411.26,577.19 415.36,575.41 C417.63,574.43 422.80,572.13 426.82,570.31 C430.85,568.49 434.34,567.00 434.58,567.00 C436.02,567.00 460.10,554.34 465.72,550.62 C480.41,540.91 489.81,531.13 488.48,526.93 C487.93,525.19 487.24,524.91 484.65,525.35 C482.92,525.64 476.72,526.18 470.89,526.55 C459.11,527.29 451.98,525.91 445.05,521.53 C441.33,519.19 436.00,513.58 436.00,512.02 C436.00,511.57 438.92,502.26 442.50,491.35 C446.07,480.43 450.21,467.53 451.70,462.67 C454.57,453.32 456.69,451.00 462.35,451.00 C466.20,451.00 478.80,455.59 483.06,458.54 C488.83,462.54 496.39,470.94 500.05,477.44 L 503.32 483.23 L 510.41 482.55 C519.09,481.73 524.63,480.24 528.25,477.75 C530.84,475.97 531.00,475.43 531.02,468.18 C531.04,462.68 531.61,459.23 533.06,456.00 C535.50,450.54 543.16,439.00 544.33,439.00 C546.24,439.00 548.94,443.72 548.97,447.12 C549.06,456.74 545.77,480.46 543.35,487.66 C537.42,505.32 527.25,518.36 516.39,522.26 C513.70,523.22 510.72,524.01 509.77,524.00 C508.68,524.00 507.83,525.02 507.48,526.75 C504.00,543.91 497.57,557.29 487.92,567.44 C473.20,582.94 461.68,587.58 432.00,589.94 ZM 775.84 533.24 C772.49,538.47 771.61,538.81 768.18,536.17 L 765.85 534.38 L 767.84 528.44 C772.32,515.09 773.02,508.64 773.99,472.00 C775.29,422.78 775.85,418.51 782.79,404.50 C786.02,397.99 794.76,382.06 795.66,381.06 C795.88,380.81 796.94,381.49 798.02,382.57 C799.93,384.49 799.94,384.89 798.46,398.02 C797.63,405.43 796.30,424.55 795.52,440.50 C793.64,478.64 792.35,492.72 789.90,501.92 C787.71,510.09 780.78,525.56 775.84,533.24 ZM 542.47 596.50 C538.21,609.15 534.67,619.57 534.61,619.67 C534.55,619.76 533.07,619.23 531.33,618.50 C528.20,617.18 528.18,617.12 529.37,613.33 C531.67,606.00 564.92,507.01 606.32,384.25 C613.37,363.34 614.77,360.00 616.50,360.02 C617.60,360.02 619.10,360.41 619.84,360.88 C619.98,360.97 620.12,361.02 620.24,361.10 C621.45,361.98 619.85,366.72 587.16,463.77 L 582.71 477.00 C564.83,530.08 546.73,583.85 542.47,596.50 ZM 358.57 468.78 C357.24,471.38 354.20,475.62 351.82,478.21 L 347.50 482.93 L 342.50 479.00 C339.75,476.84 334.47,473.37 330.77,471.28 C327.07,469.20 324.04,467.15 324.02,466.72 C324.00,466.06 337.82,446.17 340.05,443.65 C341.51,442.00 352.99,448.18 357.06,452.80 C361.80,458.19 362.15,461.84 358.57,468.78 ZM 542.52 404.98 C540.01,408.24 537.62,411.10 537.23,411.33 C536.83,411.55 534.31,409.99 531.63,407.85 C528.96,405.70 523.64,402.12 519.81,399.89 C515.55,397.40 513.04,395.33 513.34,394.54 C514.40,391.78 529.46,372.00 530.50,372.00 C533.29,372.00 542.22,377.52 545.92,381.53 C552.10,388.23 551.33,393.52 542.52,404.98 ZM 418.02 395.98 C413.54,399.18 408.46,398.66 404.40,394.60 C399.79,389.99 399.60,384.24 403.92,379.92 C406.37,377.47 407.65,377.00 411.83,377.00 C416.15,377.00 417.16,377.41 419.34,379.99 C420.73,381.64 422.15,383.90 422.50,385.01 C423.48,388.10 421.18,393.73 418.02,395.98 ZM 800.19 363.42 C793.84,366.58 786.29,370.67 783.42,372.51 C780.54,374.35 777.97,375.63 777.70,375.37 C777.02,374.69 780.04,366.88 781.78,364.82 C784.53,361.54 813.49,345.16 814.59,346.25 C814.90,346.57 814.39,349.26 813.45,352.25 L 811.74 357.67 ZM 408.00 391.00 C410.43,393.43 412.74,393.54 415.17,391.35 C417.25,389.47 417.59,384.99 415.80,383.20 C412.91,380.31 406.00,383.09 406.00,387.15 C406.00,388.17 406.90,389.90 408.00,391.00 Z" fill="rgb(40,64,195)"/>
<path d="M 0.00 0.00 L 1091.00 0.00 L 1091.00 961.00 L 0.00 961.00 ZM 688.50 521.56 C707.31,512.36 720.01,489.80 727.38,452.50 C729.90,439.72 732.00,409.35 732.00,385.54 L 732.00 363.55 L 737.90 357.94 C744.98,351.21 760.74,340.62 782.50,328.00 C837.90,295.87 843.28,292.14 851.37,280.29 C855.43,274.35 856.24,272.38 856.63,267.39 C857.40,257.83 856.81,257.75 843.86,265.71 C837.61,269.55 821.70,278.92 808.50,286.54 C795.30,294.16 780.90,302.48 776.50,305.04 C748.54,321.29 731.67,335.24 722.35,349.80 C718.32,356.10 713.50,368.02 712.47,374.25 C712.08,376.59 711.55,379.40 711.28,380.50 C711.01,381.60 710.43,401.93 709.99,425.67 C709.55,449.41 708.90,469.74 708.55,470.84 C708.20,471.94 705.69,474.27 702.98,476.02 C693.33,482.21 692.22,482.35 650.50,482.72 C626.03,482.93 611.74,483.44 610.37,484.13 C609.20,484.72 607.18,487.48 605.87,490.27 C603.78,494.73 603.50,496.78 603.50,507.58 C603.50,519.24 603.62,519.96 605.98,522.47 L 608.45 525.11 L 645.48 524.80 L 682.50 524.50 ZM 340.50 586.54 C355.01,583.89 364.01,580.33 376.14,572.41 C393.67,560.96 408.94,539.35 415.28,517.00 C420.25,499.47 420.49,496.54 420.27,456.63 C420.05,418.66 419.80,416.00 416.52,416.00 C415.15,416.00 409.33,428.11 406.17,437.51 C400.56,454.19 399.98,465.54 403.40,491.54 C404.35,498.80 404.76,502.04 404.58,504.33 C404.31,504.05 403.92,503.80 403.50,503.64 C402.59,503.29 402.00,503.64 402.00,504.53 C402.00,505.34 402.67,506.00 403.50,506.00 C403.81,506.00 404.11,505.94 404.35,505.84 C404.10,506.91 403.68,507.92 403.08,509.32 C394.36,529.66 362.06,545.97 330.44,545.99 C305.16,546.01 286.47,536.72 278.77,520.31 C276.24,514.91 275.87,512.96 275.83,504.81 C275.78,493.59 277.65,485.39 285.19,463.69 L 289.29 451.88 L 285.44 447.94 C283.33,445.77 281.21,444.00 280.73,444.00 C277.94,444.00 264.55,480.34 260.91,497.82 C258.74,508.21 257.95,526.66 259.28,535.93 C262.43,557.91 277.67,576.40 298.50,583.51 C311.30,587.88 326.97,589.01 340.50,586.54 ZM 432.00 589.94 C461.68,587.58 473.20,582.94 487.92,567.44 C497.57,557.29 504.00,543.91 507.48,526.75 C507.83,525.02 508.68,524.00 509.77,524.00 C510.72,524.01 513.70,523.22 516.39,522.26 C527.25,518.36 537.42,505.32 543.35,487.66 C545.77,480.46 549.06,456.74 548.97,447.12 C548.94,443.72 546.24,439.00 544.33,439.00 C543.16,439.00 535.50,450.54 533.06,456.00 C531.61,459.23 531.04,462.68 531.02,468.18 C531.00,475.43 530.84,475.97 528.25,477.75 C524.63,480.24 519.09,481.73 510.41,482.55 L 503.32 483.23 L 500.05 477.44 C496.39,470.94 488.83,462.54 483.06,458.54 C478.80,455.59 466.20,451.00 462.35,451.00 C456.69,451.00 454.57,453.32 451.70,462.67 C450.21,467.53 446.07,480.43 442.50,491.35 C438.92,502.26 436.00,511.57 436.00,512.02 C436.00,513.58 441.33,519.19 445.05,521.53 C451.98,525.91 459.11,527.29 470.89,526.55 C476.72,526.18 482.92,525.64 484.65,525.35 C487.24,524.91 487.93,525.19 488.48,526.93 C489.81,531.13 480.41,540.91 465.72,550.62 C460.10,554.34 436.02,567.00 434.58,567.00 C434.34,567.00 430.85,568.49 426.82,570.31 C422.80,572.13 417.63,574.43 415.36,575.41 C411.26,577.19 411.20,577.28 410.53,583.58 C410.15,587.08 410.15,590.44 410.53,591.04 C410.93,591.70 412.68,591.91 414.85,591.58 C416.86,591.26 424.58,590.53 432.00,589.94 ZM 775.84 533.24 C780.78,525.56 787.71,510.09 789.90,501.92 C792.35,492.72 793.64,478.64 795.52,440.50 C796.30,424.55 797.63,405.43 798.46,398.02 C799.94,384.89 799.93,384.49 798.02,382.57 C796.94,381.49 795.88,380.81 795.66,381.06 C794.76,382.06 786.02,397.99 782.79,404.50 C775.85,418.51 775.29,422.78 773.99,472.00 C773.02,508.64 772.32,515.09 767.84,528.44 L 765.85 534.38 L 768.18 536.17 C771.61,538.81 772.49,538.47 775.84,533.24 ZM 542.47 596.50 C546.73,583.85 564.83,530.08 582.71,477.00 L 587.16 463.77 L 587.16 463.77 C619.85,366.72 621.45,361.98 620.24,361.10 C620.12,361.02 619.98,360.97 619.84,360.88 C619.10,360.41 617.60,360.02 616.50,360.02 C614.77,360.00 613.37,363.34 606.32,384.25 C564.92,507.01 531.67,606.00 529.37,613.33 C528.18,617.12 528.20,617.18 531.33,618.50 C533.07,619.23 534.55,619.76 534.61,619.67 C534.67,619.57 538.21,609.15 542.47,596.50 ZM 358.57 468.78 C362.15,461.84 361.80,458.19 357.06,452.80 C352.99,448.18 341.51,442.00 340.05,443.65 C337.82,446.17 324.00,466.06 324.02,466.72 C324.04,467.15 327.07,469.20 330.77,471.28 C334.47,473.37 339.75,476.84 342.50,479.00 L 347.50 482.93 L 351.82 478.21 C354.20,475.62 357.24,471.38 358.57,468.78 ZM 542.52 404.98 C551.33,393.52 552.10,388.23 545.92,381.53 C542.22,377.52 533.29,372.00 530.50,372.00 C529.46,372.00 514.40,391.78 513.34,394.54 C513.04,395.33 515.55,397.40 519.81,399.89 C523.64,402.12 528.96,405.70 531.63,407.85 C534.31,409.99 536.83,411.55 537.23,411.33 C537.62,411.10 540.01,408.24 542.52,404.98 ZM 418.02 395.98 C421.18,393.73 423.48,388.10 422.50,385.01 C422.15,383.90 420.73,381.64 419.34,379.99 C417.16,377.41 416.15,377.00 411.83,377.00 C407.65,377.00 406.37,377.47 403.92,379.92 C399.60,384.24 399.79,389.99 404.40,394.60 C408.46,398.66 413.54,399.18 418.02,395.98 ZM 800.19 363.42 L 811.74 357.67 L 813.45 352.25 C814.39,349.26 814.90,346.57 814.59,346.25 C813.49,345.16 784.53,361.54 781.78,364.82 C780.04,366.88 777.02,374.69 777.70,375.37 C777.97,375.63 780.54,374.35 783.42,372.51 C786.29,370.67 793.84,366.58 800.19,363.42 ZM 766.98 476.75 C767.00,485.31 767.92,488.25 769.39,484.42 C770.65,481.15 770.00,464.06 768.45,459.49 C767.40,456.42 767.11,453.45 767.56,450.46 C767.97,447.69 767.85,446.00 767.22,446.00 C765.33,446.00 765.03,449.09 766.00,458.30 C766.53,463.36 766.97,471.66 766.98,476.75 ZM 408.00 391.00 C406.90,389.90 406.00,388.17 406.00,387.15 C406.00,383.09 412.91,380.31 415.80,383.20 C417.59,384.99 417.25,389.47 415.17,391.35 C412.74,393.54 410.43,393.43 408.00,391.00 ZM 355.67 590.87 C357.99,592.22 358.73,592.25 359.50,591.00 C360.31,589.70 364.70,589.71 365.51,591.02 C365.86,591.58 366.62,591.73 367.21,591.37 C367.84,590.98 367.20,590.14 365.64,589.32 C362.31,587.57 362.24,585.23 365.50,584.41 C366.88,584.07 368.00,583.38 368.00,582.89 C368.00,581.29 363.68,581.95 361.56,583.87 C360.43,584.91 357.02,586.54 354.00,587.50 C347.27,589.64 344.95,591.44 350.17,590.48 C352.26,590.10 354.62,590.27 355.67,590.87 ZM 785.00 342.98 C785.00,343.54 785.21,344.00 785.47,344.00 C786.46,344.00 784.64,337.47 783.46,336.76 C782.78,336.36 781.94,334.89 781.59,333.50 C780.96,330.99 780.94,330.98 777.73,332.67 L 774.50 334.36 L 777.00 334.97 C778.59,335.36 779.62,336.40 779.83,337.84 C780.01,339.13 781.20,340.50 782.58,341.03 C783.91,341.54 785.00,342.41 785.00,342.98 ZM 394.59 445.50 C396.44,448.32 398.00,448.32 399.71,445.50 C401.35,442.80 401.30,441.67 399.56,442.34 C398.77,442.64 396.97,441.98 395.56,440.87 L 393.00 438.85 L 393.00 440.96 C393.00,442.12 393.72,444.17 394.59,445.50 ZM 286.00 440.91 C286.00,441.99 289.80,441.14 290.57,439.89 C290.87,439.41 289.50,437.36 287.53,435.33 C284.81,432.53 283.68,431.92 282.79,432.81 C281.91,433.69 282.14,434.52 283.75,436.24 C285.79,438.40 286.00,438.85 286.00,440.91 ZM 780.50 538.69 C781.60,539.35 782.55,539.91 782.61,539.94 C782.67,539.97 782.51,538.91 782.26,537.57 C782.00,536.23 782.51,534.10 783.40,532.84 C785.48,529.86 785.42,529.00 783.11,529.00 C781.83,529.00 780.69,530.33 779.57,533.12 C778.66,535.39 778.05,537.31 778.21,537.37 C778.37,537.44 779.40,538.04 780.50,538.69 ZM 756.25 309.27 C758.88,311.04 759.38,310.76 759.56,307.47 C759.65,305.83 759.02,304.83 757.64,304.39 C756.51,304.03 754.98,303.12 754.23,302.37 C753.47,301.62 752.44,301.00 751.93,301.00 C750.44,301.00 750.86,302.73 752.50,303.36 C753.33,303.68 754.00,304.80 754.00,305.85 C754.00,306.90 755.01,308.44 756.25,309.27 ZM 594.14 390.67 C595.24,391.99 595.48,391.93 596.13,390.19 C596.53,389.10 597.34,387.91 597.93,387.54 C599.28,386.71 599.34,381.33 598.00,380.50 C597.46,380.16 596.51,381.15 595.90,382.69 C595.29,384.24 594.36,386.32 593.83,387.33 C593.19,388.57 593.28,389.64 594.14,390.67 ZM 696.58 523.25 C696.22,524.86 696.39,526.00 696.98,526.00 C697.91,526.00 698.41,524.60 698.12,522.77 C698.06,522.36 699.18,521.74 700.61,521.38 C702.33,520.95 703.71,519.55 704.67,517.26 C705.46,515.35 705.95,513.62 705.75,513.41 C704.84,512.51 697.14,520.78 696.58,523.25 ZM 574.17 517.44 C574.18,521.60 574.37,525.00 574.57,525.00 C574.78,525.00 575.58,523.76 576.35,522.25 C577.94,519.11 577.24,510.91 575.32,510.27 C574.48,509.99 574.15,512.06 574.17,517.44 ZM 734.00 366.18 C734.00,368.34 735.68,367.76 737.76,364.88 C738.45,363.92 740.03,362.99 741.26,362.82 C742.70,362.61 743.61,361.69 743.82,360.25 C744.26,357.13 741.66,357.34 739.54,360.59 C738.60,362.01 737.58,362.91 737.26,362.60 C736.29,361.62 734.00,364.13 734.00,366.18 ZM 416.64 535.90 C418.56,538.64 419.20,538.11 419.48,533.53 C419.60,531.59 420.47,529.14 421.41,528.10 C422.38,527.02 422.72,525.94 422.18,525.61 C421.37,525.11 417.93,528.83 415.72,532.59 C415.37,533.18 415.79,534.68 416.64,535.90 ZM 268.67 573.33 C269.62,574.28 274.00,574.16 274.00,573.19 C274.00,572.74 272.65,571.08 271.00,569.50 C269.35,567.92 268.00,566.05 268.00,565.34 C268.00,564.60 267.35,564.31 266.46,564.65 C265.07,565.19 265.07,565.42 266.46,566.95 C267.31,567.89 268.00,569.56 268.00,570.66 C268.00,571.76 268.30,572.97 268.67,573.33 ZM 840.22 297.83 C839.88,298.87 840.82,299.00 844.64,298.45 C850.37,297.62 851.00,297.33 851.00,295.50 C851.00,293.29 849.02,292.67 847.19,294.31 C846.26,295.14 844.41,295.97 843.08,296.16 C841.75,296.35 840.46,297.10 840.22,297.83 ZM 798.85 347.50 C799.12,350.15 801.85,349.13 802.18,346.25 C802.43,344.09 803.09,343.43 805.25,343.18 C806.92,342.99 808.00,342.26 808.00,341.33 C808.00,340.25 807.47,340.00 806.25,340.51 C805.29,340.90 803.72,341.45 802.76,341.73 C801.80,342.00 801.29,342.66 801.61,343.18 C801.94,343.70 801.37,343.99 800.35,343.82 C799.33,343.64 798.54,344.06 798.60,344.75 C798.66,345.44 798.77,346.67 798.85,347.50 ZM 509.07 404.12 C510.96,404.46 512.61,404.80 512.75,404.87 C512.89,404.94 513.00,404.33 513.00,403.50 C513.00,402.67 512.39,402.00 511.65,402.00 C510.92,402.00 509.50,401.10 508.50,400.00 C505.81,397.03 504.01,397.40 504.90,400.75 C505.47,402.88 506.41,403.64 509.07,404.12 ZM 529.20 585.80 C531.91,588.51 533.01,586.87 531.76,581.95 C530.51,577.05 528.00,576.61 528.00,581.30 C528.00,583.11 528.54,585.14 529.20,585.80 ZM 489.50 570.59 C487.17,573.65 487.09,574.00 488.76,574.00 C491.47,574.00 493.80,571.89 494.56,568.74 C495.45,565.04 493.07,565.91 489.50,570.59 ZM 525.00 441.00 C525.00,442.10 525.26,443.00 525.58,443.00 C526.74,443.00 534.89,434.23 534.29,433.62 C532.86,432.19 531.13,433.19 530.15,436.00 C529.45,438.02 528.43,439.00 527.05,439.00 C525.67,439.00 525.00,439.65 525.00,441.00 ZM 814.66 271.33 C815.30,271.97 824.00,263.83 824.00,262.60 C824.00,262.27 823.10,262.00 822.00,262.00 C820.64,262.00 820.00,262.67 820.00,264.09 C820.00,265.49 819.01,266.55 817.00,267.31 C814.13,268.39 813.24,269.91 814.66,271.33 ZM 860.61 271.42 C860.94,272.29 861.63,273.00 862.14,273.00 C863.86,273.00 864.25,269.93 862.75,268.21 C861.92,267.27 860.54,265.15 859.67,263.50 L 858.08 260.50 L 858.04 263.25 C858.02,264.76 858.45,266.00 859.00,266.00 C859.55,266.00 860.00,266.86 860.00,267.92 C860.00,268.97 860.27,270.55 860.61,271.42 ZM 781.00 394.96 C781.00,395.53 781.36,396.00 781.80,396.00 C783.36,396.00 785.00,393.57 785.00,391.27 C785.00,389.99 785.67,388.68 786.50,388.36 C788.43,387.62 788.45,386.00 786.52,386.00 C785.13,386.00 781.00,392.70 781.00,394.96 ZM 358.55 538.08 C359.32,539.33 360.73,539.24 361.56,537.90 C361.94,537.29 363.81,536.14 365.73,535.34 C369.98,533.56 369.36,532.52 364.58,533.42 C360.80,534.13 357.62,536.58 358.55,538.08 ZM 587.43 478.25 C588.31,480.31 589.20,482.00 589.41,482.00 C589.62,482.00 589.64,479.19 589.45,475.75 C589.10,469.17 588.12,467.83 586.69,472.00 C586.11,473.71 586.34,475.68 587.43,478.25 ZM 336.76 487.38 C338.26,488.17 339.87,488.58 340.32,488.30 C341.23,487.74 334.91,481.56 332.47,480.63 C329.77,479.59 333.69,485.77 336.76,487.38 ZM 393.31 512.00 C392.80,517.11 392.88,517.36 394.31,515.50 C395.16,514.40 395.44,513.35 394.93,513.17 C393.53,512.67 393.80,510.80 395.88,506.44 C396.92,504.27 398.05,500.92 398.40,499.00 C398.94,495.98 398.67,496.26 396.43,501.00 C395.01,504.02 393.60,508.98 393.31,512.00 ZM 428.38 394.54 C429.25,396.81 430.71,396.27 431.80,393.25 C432.35,391.74 433.11,389.71 433.50,388.75 C434.66,385.89 432.32,386.74 429.97,390.04 C428.79,391.71 428.07,393.73 428.38,394.54 ZM 863.52 258.75 C864.55,261.80 867.00,259.06 867.00,254.85 C867.00,253.36 866.44,252.94 864.75,253.18 C862.57,253.49 862.24,254.97 863.52,258.75 ZM 546.54 542.75 C545.77,546.33 546.89,546.97 549.43,544.43 C551.35,542.51 551.37,541.89 549.65,539.54 C548.13,537.46 547.54,538.07 546.54,542.75 ZM 318.13 471.08 C319.95,472.21 321.17,470.79 321.61,467.05 C321.93,464.26 321.77,464.05 320.05,464.97 C317.52,466.33 316.37,469.99 318.13,471.08 ZM 775.63 406.30 C776.43,407.10 779.50,403.23 780.43,400.25 C781.36,397.29 780.45,397.41 777.45,400.65 C775.01,403.28 774.43,405.09 775.63,406.30 ZM 750.00 353.43 C750.00,354.52 751.91,353.99 752.70,352.67 C753.14,351.95 754.29,351.06 755.25,350.71 C757.09,350.03 757.62,347.50 756.11,346.57 C755.31,346.08 750.00,352.04 750.00,353.43 ZM 416.19 375.22 C419.26,375.73 420.00,375.27 420.00,372.87 C420.00,371.28 419.44,370.93 417.26,371.18 C413.75,371.59 412.93,374.69 416.19,375.22 ZM 396.22 435.15 C398.21,436.42 399.73,436.15 400.40,434.41 C401.20,432.31 400.30,431.00 398.05,431.00 C395.79,431.00 394.45,434.04 396.22,435.15 ZM 396.91 558.17 C396.08,559.72 396.32,560.00 398.50,560.00 C401.25,560.00 402.60,558.00 401.60,555.39 C401.08,554.05 400.71,554.00 399.43,555.06 C398.59,555.76 397.45,557.16 396.91,558.17 ZM 532.00 444.87 L 532.00 447.35 L 534.50 445.00 C537.20,442.46 537.79,440.00 535.70,440.00 C533.65,440.00 532.00,442.18 532.00,444.87 ZM 295.75 534.76 C296.06,535.67 296.88,535.60 299.08,534.46 C302.31,532.79 302.82,531.25 300.44,530.34 C298.64,529.65 295.15,532.94 295.75,534.76 ZM 793.00 507.57 C793.00,509.55 795.92,509.08 797.30,506.89 C797.86,506.00 798.03,504.53 797.68,503.61 C797.11,502.12 796.84,502.16 795.02,503.98 C793.91,505.09 793.00,506.71 793.00,507.57 ZM 607.75 480.75 C608.39,482.47 610.49,482.32 612.06,480.42 C613.15,479.12 613.13,478.69 611.94,477.94 C608.97,476.07 606.62,477.65 607.75,480.75 ZM 627.25 366.54 C630.23,369.52 630.27,369.51 629.46,365.75 C628.54,361.45 628.20,360.99 626.47,361.65 C624.40,362.44 624.64,363.93 627.25,366.54 ZM 773.00 343.97 C774.94,345.26 775.35,345.25 776.80,343.80 C779.90,340.70 777.04,338.73 773.44,341.48 C771.76,342.76 771.70,343.10 773.00,343.97 ZM 395.00 374.54 C395.00,376.47 398.41,376.42 400.04,374.46 C400.93,373.38 401.00,372.60 400.26,371.86 C398.90,370.50 395.00,372.48 395.00,374.54 ZM 410.63 537.75 C411.53,541.12 414.00,540.57 414.00,537.00 C414.00,534.67 413.56,534.00 412.00,534.00 C409.84,534.00 409.72,534.34 410.63,537.75 ZM 557.12 506.22 C557.64,507.20 558.52,508.00 559.07,508.00 C560.86,508.00 561.21,505.14 559.69,502.96 C558.28,500.95 558.14,500.93 557.18,502.64 C556.53,503.80 556.51,505.08 557.12,506.22 ZM 254.04 495.55 C255.77,497.63 257.50,496.83 257.50,493.93 C257.50,492.44 256.84,491.40 255.75,491.19 C253.50,490.76 252.40,493.57 254.04,495.55 ZM 534.00 513.11 C534.00,514.55 534.72,515.00 537.06,515.00 C540.10,515.00 540.21,514.47 537.77,511.31 C536.49,509.64 534.00,510.83 534.00,513.11 ZM 699.00 451.12 C699.00,454.67 699.21,455.07 700.50,454.00 C701.33,453.32 702.00,451.46 702.00,449.88 C702.00,447.99 701.49,447.00 700.50,447.00 C699.41,447.00 699.00,448.12 699.00,451.12 ZM 518.56 378.09 C519.37,379.41 520.58,379.21 521.99,377.51 C523.54,375.64 522.56,372.85 520.62,373.59 C518.91,374.25 517.75,376.78 518.56,378.09 ZM 383.65 571.47 C383.22,572.58 383.72,573.00 385.47,573.00 C388.22,573.00 389.44,571.60 388.60,569.41 C387.92,567.62 384.60,569.01 383.65,571.47 ZM 277.00 495.23 C277.00,498.84 280.47,496.84 280.83,493.01 C281.16,489.56 281.15,489.55 279.08,491.43 C277.94,492.46 277.00,494.17 277.00,495.23 ZM 354.37 531.53 C355.06,533.32 357.15,532.59 358.78,529.98 C359.89,528.21 359.76,528.00 357.57,528.00 C354.81,528.00 353.55,529.39 354.37,531.53 ZM 791.74 351.40 C792.70,352.36 794.51,352.09 795.80,350.80 C797.64,348.96 797.24,348.00 794.61,348.00 C792.31,348.00 790.49,350.16 791.74,351.40 ZM 699.63 467.49 C700.59,469.98 702.21,467.73 701.83,464.45 C701.41,460.86 699.00,459.91 699.00,463.33 C699.00,464.71 699.28,466.58 699.63,467.49 ZM 821.59 273.15 C822.42,274.49 823.54,274.16 825.48,272.02 C827.20,270.12 827.20,270.01 825.49,269.36 C823.61,268.64 820.61,271.55 821.59,273.15 ZM 524.62 414.92 C524.89,415.77 525.42,415.97 525.97,415.42 C527.22,414.14 525.75,407.75 524.06,407.19 C523.05,406.85 522.89,407.23 523.46,408.61 C523.89,409.65 524.22,411.17 524.20,412.00 C524.18,412.83 524.37,414.14 524.62,414.92 ZM 600.65 440.01 C600.98,441.65 601.64,443.00 602.12,443.00 C603.17,443.00 603.16,438.27 602.10,435.57 C601.43,433.84 601.28,433.82 600.70,435.33 C600.35,436.26 600.32,438.37 600.65,440.01 ZM 547.75 596.80 C548.00,597.52 548.72,597.93 549.35,597.72 C550.72,597.28 551.53,591.00 550.22,591.00 C548.99,591.00 547.20,595.20 547.75,596.80 ZM 844.19 255.93 C843.27,258.69 847.49,256.31 849.41,253.00 L 851.42 249.50 L 848.02 252.09 C846.14,253.51 844.42,255.24 844.19,255.93 ZM 252.75 539.78 C254.98,542.57 255.00,542.56 255.00,539.12 C255.00,537.07 254.42,536.08 253.00,535.71 C250.51,535.06 250.40,536.84 252.75,539.78 ZM 503.00 476.65 C503.00,478.19 503.13,478.19 504.83,476.65 C505.83,475.74 507.41,475.00 508.33,475.00 C510.24,475.00 510.55,473.46 508.85,472.41 C508.21,472.01 507.15,472.44 506.49,473.35 C505.82,474.26 504.77,475.00 504.14,475.00 C503.51,475.00 503.00,475.74 503.00,476.65 ZM 373.66 530.33 C374.65,531.32 375.15,531.17 377.17,529.35 C379.33,527.39 379.53,526.00 377.65,526.00 C375.95,526.00 372.78,529.44 373.66,530.33 ZM 415.31 571.36 C417.42,572.22 417.91,572.04 419.00,570.00 C419.93,568.26 419.76,568.00 417.64,568.00 C415.06,568.00 413.30,570.54 415.31,571.36 ZM 434.00 480.49 C434.00,481.79 436.13,480.81 436.68,479.25 C437.02,478.29 437.98,476.71 438.81,475.75 C440.30,474.01 439.42,473.35 437.50,474.77 C436.48,475.52 434.00,479.56 434.00,480.49 ZM 288.53 588.06 C289.51,589.63 292.43,588.73 292.81,586.74 C293.04,585.55 292.51,585.00 291.13,585.00 C288.84,585.00 287.57,586.49 288.53,588.06 ZM 809.06 364.58 C810.28,366.04 812.22,366.14 812.08,364.73 C812.03,364.33 812.00,363.33 812.00,362.50 C812.00,360.79 809.45,360.46 808.47,362.04 C808.12,362.62 808.38,363.76 809.06,364.58 ZM 408.00 417.62 C408.00,418.38 408.90,419.00 410.00,419.00 C411.95,419.00 412.83,416.16 411.34,414.68 C410.44,413.77 408.00,415.93 408.00,417.62 ZM 784.69 379.36 C785.98,380.65 790.00,380.00 790.00,378.50 C790.00,377.58 789.06,377.00 787.56,377.00 C785.05,377.00 783.56,378.23 784.69,379.36 ZM 392.74 401.40 C393.41,402.08 397.00,402.23 397.00,401.58 C397.00,400.04 395.58,398.00 394.50,398.00 C393.07,398.00 391.80,400.46 392.74,401.40 ZM 347.00 440.12 C347.00,440.61 348.12,441.00 349.50,441.00 C352.04,441.00 352.98,438.72 350.96,437.47 C349.83,436.78 347.00,438.68 347.00,440.12 ZM 513.31 535.20 C514.10,535.70 514.61,535.04 514.84,533.25 C515.02,531.77 514.68,530.39 514.08,530.19 C513.48,529.99 513.24,529.42 513.55,528.91 C513.86,528.41 513.71,528.00 513.21,528.00 C511.85,528.00 511.94,534.34 513.31,535.20 ZM 511.44 373.90 C512.46,375.55 513.81,375.23 514.97,373.06 C515.70,371.70 515.68,370.92 514.91,370.44 C513.48,369.56 510.56,372.48 511.44,373.90 ZM 793.74 326.41 C794.64,327.31 798.14,324.92 797.73,323.68 C797.05,321.65 794.29,321.80 793.74,323.89 C793.45,324.99 793.45,326.12 793.74,326.41 ZM 793.00 374.57 C793.00,375.68 793.78,376.04 795.67,375.82 C799.57,375.36 799.91,373.00 796.08,373.00 C793.95,373.00 793.00,373.48 793.00,374.57 ZM 745.00 368.43 C745.00,369.47 746.32,369.02 748.17,367.35 C750.38,365.35 750.52,364.00 748.54,364.00 C747.26,364.00 745.00,366.83 745.00,368.43 ZM 286.20 492.80 C287.89,494.49 288.00,494.37 288.00,491.00 C284.71,488.00 284.51,491.11 286.20,492.80 ZM 616.00 474.50 C616.00,475.42 616.94,476.00 618.44,476.00 C621.36,476.00 622.63,474.46 620.41,473.60 C617.74,472.58 616.00,472.93 616.00,474.50 ZM 550.72 481.99 C552.73,484.33 554.00,484.58 554.00,482.62 C554.00,481.85 552.88,480.49 551.50,479.59 C548.62,477.71 548.19,479.04 550.72,481.99 ZM 386.58 580.13 C387.59,581.77 389.77,581.00 390.34,578.79 C390.66,577.58 390.72,576.38 390.47,576.13 C389.71,575.38 386.01,579.20 386.58,580.13 ZM 855.00 257.12 C856.89,257.91 858.00,257.29 858.00,255.44 C858.00,254.57 857.01,254.00 855.50,254.00 C852.80,254.00 852.47,256.07 855.00,257.12 ZM 394.47 423.96 C395.57,425.73 398.00,425.11 398.00,423.06 C398.00,421.99 397.60,420.87 397.11,420.57 C395.90,419.82 393.67,422.67 394.47,423.96 ZM 252.41 548.58 C252.02,550.06 252.32,550.67 253.45,550.67 C254.63,550.67 254.98,549.81 254.82,547.33 C254.61,544.25 253.02,542.44 252.99,545.25 C252.98,545.94 252.72,547.44 252.41,548.58 ZM 621.00 356.98 C622.95,358.26 624.42,357.75 624.82,355.67 C625.18,353.82 623.31,353.50 621.00,355.02 C619.67,355.89 619.67,356.11 621.00,356.98 ZM 284.75 522.31 C287.65,523.07 288.00,523.04 288.00,522.04 C288.00,521.14 284.87,519.00 283.57,519.00 C282.15,519.00 283.19,521.90 284.75,522.31 ZM 282.69 482.64 C283.16,483.87 283.52,483.84 285.06,482.45 C286.05,481.55 286.61,480.16 286.31,479.36 C285.84,478.13 285.48,478.16 283.94,479.55 C282.95,480.45 282.39,481.84 282.69,482.64 ZM 705.56 461.38 C705.92,462.82 706.62,464.00 707.11,464.00 C708.37,464.00 708.22,459.25 706.93,458.46 C705.31,457.46 704.83,458.48 705.56,461.38 ZM 531.34 628.43 C531.67,629.29 532.35,630.00 532.86,630.00 C534.41,630.00 535.15,626.71 533.79,625.87 C532.12,624.84 530.57,626.44 531.34,628.43 ZM 730.17 472.84 C729.91,474.65 730.25,475.10 731.67,474.83 C733.87,474.40 734.17,470.50 732.00,470.50 C731.17,470.50 730.35,471.55 730.17,472.84 ZM 567.25 475.26 C567.94,475.50 568.65,475.06 568.83,474.29 C569.33,472.20 568.16,469.78 567.01,470.50 C565.58,471.38 565.75,474.75 567.25,475.26 ZM 613.00 396.12 C613.00,397.16 613.40,398.00 613.89,398.00 C614.91,398.00 616.00,395.57 616.00,393.30 C616.00,392.04 615.72,391.99 614.50,393.00 C613.67,393.68 613.00,395.09 613.00,396.12 ZM 342.13 542.31 C343.66,543.97 345.00,543.59 345.00,541.50 C345.00,539.59 343.04,538.56 341.80,539.80 C341.09,540.51 341.20,541.30 342.13,542.31 ZM 812.69 277.79 C811.19,279.45 811.24,279.58 813.54,279.77 C815.40,279.93 816.00,279.49 816.00,277.99 C816.00,275.52 814.81,275.45 812.69,277.79 ZM 778.43 297.89 C779.57,299.74 782.00,299.13 782.00,297.00 C782.00,294.83 781.26,294.55 779.12,295.90 C778.36,296.38 778.05,297.28 778.43,297.89 ZM 529.64 422.31 C530.68,423.35 532.00,422.03 532.00,419.94 C532.00,418.87 531.33,418.00 530.50,418.00 C529.02,418.00 528.40,421.07 529.64,422.31 ZM 471.99 588.99 C473.93,590.19 475.47,588.66 474.60,586.39 C473.96,584.74 473.83,584.74 472.21,586.36 C470.72,587.85 470.69,588.19 471.99,588.99 ZM 392.75 572.81 L 390.56 575.00 L 392.81 575.00 C394.05,575.00 395.33,574.31 395.65,573.46 C396.66,570.85 395.06,570.49 392.75,572.81 ZM 525.18 523.83 C524.97,525.27 525.39,526.00 526.43,526.00 C527.45,526.00 528.00,525.10 528.00,523.42 C528.00,520.28 525.65,520.63 525.18,523.83 ZM 565.53 463.05 C566.44,464.52 568.43,463.68 568.82,461.67 C569.01,460.70 568.51,460.00 567.63,460.00 C565.77,460.00 564.65,461.63 565.53,463.05 ZM 363.76 451.50 C363.25,454.14 363.68,454.49 365.78,453.15 C366.49,452.71 366.78,451.59 366.43,450.67 C365.50,448.25 364.31,448.62 363.76,451.50 ZM 595.38 489.55 C595.69,490.35 596.40,491.00 596.97,491.00 C598.25,491.00 598.34,487.33 597.07,486.54 C595.81,485.76 594.69,487.75 595.38,489.55 ZM 713.00 348.04 C713.00,348.57 713.90,349.00 715.00,349.00 C716.34,349.00 717.00,348.33 717.00,346.96 C717.00,345.24 716.70,345.09 715.00,346.00 C713.90,346.59 713.00,347.50 713.00,348.04 ZM 529.00 519.12 C529.00,519.61 529.69,520.00 530.53,520.00 C532.14,520.00 533.67,517.34 532.65,516.31 C531.94,515.60 529.00,517.86 529.00,519.12 ZM 743.22 319.61 C743.09,321.24 743.45,321.77 744.44,321.39 C746.62,320.55 747.06,318.25 745.14,317.75 C743.90,317.42 743.36,317.95 743.22,319.61 ZM 593.67 518.33 C594.80,519.46 595.00,519.11 595.00,516.00 C595.00,514.35 594.55,513.00 594.00,513.00 C592.89,513.00 592.62,517.29 593.67,518.33 ZM 264.00 451.06 C264.00,452.13 264.40,453.00 264.88,453.00 C265.81,453.00 267.21,448.88 266.53,448.19 C265.67,447.34 264.00,449.23 264.00,451.06 ZM 532.00 415.56 C532.00,417.15 532.88,417.36 534.70,416.21 C535.42,415.75 535.56,414.91 535.06,414.10 C534.07,412.50 532.00,413.49 532.00,415.56 ZM 542.43 495.89 C542.81,496.50 543.51,497.00 544.00,497.00 C545.39,497.00 546.32,494.92 545.35,493.95 C544.17,492.77 541.57,494.49 542.43,495.89 ZM 445.17 451.34 C444.92,452.68 445.32,453.08 446.66,452.83 C447.67,452.63 448.50,451.80 448.50,450.99 C448.50,448.84 445.59,449.15 445.17,451.34 ZM 263.00 466.69 C263.00,469.27 263.06,469.30 264.47,467.44 C266.36,464.94 266.37,464.00 264.50,464.00 C263.54,464.00 263.00,464.97 263.00,466.69 ZM 799.17 418.94 C798.94,420.49 799.26,421.08 800.17,420.78 C800.90,420.53 801.55,419.34 801.62,418.13 C801.77,415.25 799.60,415.97 799.17,418.94 ZM 347.35 487.46 C348.09,489.40 350.00,489.48 350.00,487.56 C350.00,485.97 348.19,484.48 347.31,485.36 C347.00,485.66 347.02,486.61 347.35,487.46 ZM 801.35 381.46 C802.09,383.40 804.00,383.48 804.00,381.56 C804.00,379.97 802.19,378.48 801.31,379.36 C801.00,379.66 801.02,380.61 801.35,381.46 ZM 525.00 593.27 C525.00,595.26 525.13,595.30 526.62,593.81 C527.51,592.92 527.93,591.69 527.55,591.08 C526.54,589.45 525.00,590.78 525.00,593.27 ZM 582.42 424.49 C581.96,427.02 582.04,427.10 583.56,425.59 C584.47,424.68 584.92,423.23 584.57,422.33 C583.78,420.27 583.05,421.01 582.42,424.49 ZM 248.44 510.72 C248.89,511.87 249.38,512.02 250.14,511.26 C250.85,510.55 250.88,509.61 250.24,508.47 C249.05,506.33 247.50,508.26 248.44,510.72 ZM 380.00 525.50 C381.41,527.20 382.63,527.42 383.44,526.10 C383.74,525.61 383.28,524.94 382.41,524.60 C379.66,523.55 378.68,523.91 380.00,525.50 ZM 859.00 251.56 C859.00,252.35 859.67,253.00 860.50,253.00 C862.18,253.00 862.25,252.82 861.40,250.59 C860.69,248.76 859.00,249.44 859.00,251.56 ZM 603.64 527.50 C604.39,529.47 606.89,529.44 606.60,527.47 C606.48,526.63 606.07,525.96 605.69,525.97 C605.31,525.99 604.56,526.00 604.03,526.00 C603.50,526.00 603.32,526.67 603.64,527.50 ZM 477.69 449.07 C477.38,450.25 477.70,451.00 478.49,451.00 C480.31,451.00 481.16,448.28 479.54,447.65 C478.77,447.36 477.98,447.97 477.69,449.07 ZM 275.67 580.33 C276.62,581.28 278.00,581.16 278.00,580.12 C278.00,579.64 277.33,578.68 276.50,578.00 C275.28,576.99 275.00,577.03 275.00,578.21 C275.00,579.01 275.30,579.97 275.67,580.33 ZM 494.00 460.50 C494.00,461.33 494.67,462.00 495.50,462.00 C496.33,462.00 497.00,461.33 497.00,460.50 C497.00,459.67 496.33,459.00 495.50,459.00 C494.67,459.00 494.00,459.67 494.00,460.50 ZM 591.74 499.40 C592.81,500.48 594.00,500.03 594.00,498.56 C594.00,497.77 593.60,496.87 593.10,496.56 C592.08,495.93 590.83,498.50 591.74,499.40 ZM 787.25 334.75 C787.00,335.49 787.71,336.00 789.00,336.00 C790.29,336.00 791.00,335.49 790.75,334.75 C790.52,334.06 789.73,333.50 789.00,333.50 C788.27,333.50 787.48,334.06 787.25,334.75 ZM 485.00 454.50 C485.00,455.46 485.65,456.01 486.55,455.82 C488.72,455.37 488.86,453.60 486.75,453.19 C485.66,452.98 485.00,453.47 485.00,454.50 ZM 546.54 370.07 C546.86,370.58 547.51,371.00 548.00,371.00 C549.40,371.00 550.13,369.20 549.02,368.51 C547.68,367.69 545.80,368.87 546.54,370.07 ZM 711.73 362.40 C712.13,362.80 712.62,362.64 712.81,362.06 C713.01,361.47 713.58,361.24 714.09,361.55 C714.59,361.86 715.00,361.64 715.00,361.06 C715.00,360.48 714.10,360.00 713.00,360.00 C710.97,360.00 710.40,361.07 711.73,362.40 ZM 733.00 454.00 C732.15,455.60 732.24,456.00 733.46,456.00 C734.33,456.00 735.00,455.13 735.00,454.00 C735.00,452.90 734.79,452.00 734.54,452.00 C734.28,452.00 733.59,452.90 733.00,454.00 ZM 798.62 479.17 L 799.43 481.50 L 799.79 479.16 C800.17,476.75 799.45,475.22 798.41,476.26 C798.08,476.58 798.18,477.90 798.62,479.17 ZM 698.00 472.58 C698.00,474.35 700.15,474.04 700.77,472.19 C700.99,471.53 700.45,471.00 699.58,471.00 C698.71,471.00 698.00,471.71 698.00,472.58 ZM 780.00 355.58 C780.00,357.35 782.15,357.04 782.77,355.19 C782.99,354.53 782.45,354.00 781.58,354.00 C780.71,354.00 780.00,354.71 780.00,355.58 ZM 511.56 381.10 C512.49,382.60 514.98,382.12 514.39,380.56 C514.08,379.77 513.20,379.37 512.42,379.67 C511.65,379.97 511.26,380.61 511.56,381.10 ZM 334.00 541.00 C332.78,541.79 332.91,541.97 334.69,541.98 C335.90,541.99 337.16,541.55 337.50,541.00 C338.29,539.73 335.97,539.73 334.00,541.00 ZM 459.50 547.00 C458.71,548.27 461.03,548.27 463.00,547.00 C464.22,546.21 464.09,546.03 462.31,546.02 C461.10,546.01 459.84,546.45 459.50,547.00 ZM 526.64 453.50 C526.29,454.41 526.64,455.00 527.53,455.00 C528.34,455.00 529.00,454.33 529.00,453.50 C529.00,452.67 528.60,452.00 528.11,452.00 C527.62,452.00 526.95,452.67 526.64,453.50 ZM 356.64 447.50 C356.29,448.41 356.64,449.00 357.53,449.00 C358.34,449.00 359.00,448.33 359.00,447.50 C359.00,446.67 358.60,446.00 358.11,446.00 C357.62,446.00 356.95,446.67 356.64,447.50 ZM 325.00 452.53 C325.00,453.34 325.67,454.00 326.50,454.00 C327.33,454.00 328.00,453.60 328.00,453.11 C328.00,452.62 327.33,451.95 326.50,451.64 C325.59,451.29 325.00,451.64 325.00,452.53 ZM 401.00 403.11 C401.00,403.60 401.67,404.00 402.50,404.00 C403.33,404.00 404.00,403.34 404.00,402.53 C404.00,401.64 403.41,401.29 402.50,401.64 C401.67,401.95 401.00,402.62 401.00,403.11 ZM 801.00 450.56 C801.00,451.35 801.45,452.00 802.00,452.00 C802.55,452.00 803.00,451.07 803.00,449.94 C803.00,448.81 802.55,448.16 802.00,448.50 C801.45,448.84 801.00,449.77 801.00,450.56 ZM 396.51 383.02 C397.07,383.93 397.44,383.90 398.06,382.90 C399.11,381.20 398.08,379.52 396.77,380.83 C396.22,381.38 396.11,382.36 396.51,383.02 ZM 433.51 518.02 C434.07,518.93 434.44,518.90 435.06,517.90 C436.11,516.20 435.08,514.52 433.77,515.83 C433.22,516.38 433.11,517.36 433.51,518.02 ZM 316.67 591.33 C317.88,592.55 318.95,592.02 318.36,590.50 C318.05,589.67 317.38,589.00 316.89,589.00 C315.84,589.00 315.71,590.38 316.67,591.33 ZM 801.18 280.44 C800.95,281.51 801.36,281.80 802.47,281.37 C803.36,281.03 803.94,280.33 803.77,279.80 C803.27,278.30 801.53,278.73 801.18,280.44 ZM 823.54 308.07 C823.86,308.58 824.54,309.00 825.06,309.00 C826.13,309.00 826.31,307.64 825.36,306.69 C824.44,305.77 822.86,306.96 823.54,308.07 ZM 735.28 414.65 C735.10,415.21 735.63,415.67 736.47,415.67 C737.31,415.67 738.00,415.03 738.00,414.25 C738.00,412.69 735.83,413.01 735.28,414.65 ZM 412.19 389.94 C411.94,390.69 412.31,391.06 413.06,390.81 C413.78,390.57 414.57,389.78 414.81,389.06 C415.06,388.31 414.69,387.94 413.94,388.19 C413.22,388.43 412.43,389.22 412.19,389.94 ZM 791.64 328.51 C791.29,329.41 791.64,330.00 792.53,330.00 C794.15,330.00 794.52,328.44 793.10,327.56 C792.61,327.26 791.95,327.68 791.64,328.51 ZM 748.00 310.00 C748.00,310.55 748.67,311.00 749.50,311.00 C750.33,311.00 751.00,310.55 751.00,310.00 C751.00,309.45 750.33,309.00 749.50,309.00 C748.67,309.00 748.00,309.45 748.00,310.00 ZM 817.00 317.00 C817.00,317.55 817.67,318.00 818.50,318.00 C819.33,318.00 820.00,317.55 820.00,317.00 C820.00,316.45 819.33,316.00 818.50,316.00 C817.67,316.00 817.00,316.45 817.00,317.00 ZM 404.00 425.50 C404.00,426.33 404.45,427.00 405.00,427.00 C405.55,427.00 406.00,426.33 406.00,425.50 C406.00,424.67 405.55,424.00 405.00,424.00 C404.45,424.00 404.00,424.67 404.00,425.50 ZM 548.00 494.50 C548.00,495.33 548.45,496.00 549.00,496.00 C549.55,496.00 550.00,495.33 550.00,494.50 C550.00,493.67 549.55,493.00 549.00,493.00 C548.45,493.00 548.00,493.67 548.00,494.50 ZM 395.00 409.00 C395.00,409.55 395.67,410.00 396.50,410.00 C397.33,410.00 398.00,409.55 398.00,409.00 C398.00,408.45 397.33,408.00 396.50,408.00 C395.67,408.00 395.00,408.45 395.00,409.00 ZM 517.00 527.00 C517.00,527.55 517.67,528.00 518.50,528.00 C519.33,528.00 520.00,527.55 520.00,527.00 C520.00,526.45 519.33,526.00 518.50,526.00 C517.67,526.00 517.00,526.45 517.00,527.00 ZM 554.25 527.34 C554.94,527.62 555.60,527.88 555.72,527.92 C555.84,527.96 555.68,527.33 555.36,526.50 C555.05,525.67 554.38,525.00 553.89,525.00 C552.55,525.00 552.82,526.76 554.25,527.34 ZM 480.47 533.95 C480.84,534.55 481.60,534.75 482.16,534.40 C482.84,533.98 482.82,533.42 482.10,532.70 C480.82,531.42 479.52,532.41 480.47,533.95 ZM 468.61 541.58 C468.23,542.56 468.46,543.01 469.19,542.77 C470.68,542.27 471.50,540.00 470.19,540.00 C469.65,540.00 468.94,540.71 468.61,541.58 ZM 538.00 566.19 C538.00,567.50 540.27,566.68 540.77,565.19 C541.01,564.46 540.56,564.23 539.58,564.61 C538.71,564.94 538.00,565.65 538.00,566.19 ZM 293.00 526.00 C293.00,526.55 293.42,527.00 293.94,527.00 C294.46,527.00 295.16,526.55 295.50,526.00 C295.84,525.45 295.42,525.00 294.56,525.00 C293.70,525.00 293.00,525.45 293.00,526.00 ZM 540.00 541.44 C540.00,542.30 540.45,543.00 541.00,543.00 C541.55,543.00 542.00,542.58 542.00,542.06 C542.00,541.54 541.55,540.84 541.00,540.50 C540.45,540.16 540.00,540.58 540.00,541.44 ZM 503.00 548.00 C503.00,548.55 503.42,549.00 503.94,549.00 C504.46,549.00 505.16,548.55 505.50,548.00 C505.84,547.45 505.42,547.00 504.56,547.00 C503.70,547.00 503.00,547.45 503.00,548.00 ZM 336.58 593.13 C337.21,594.15 337.45,594.15 337.79,593.14 C338.27,591.69 337.29,590.37 336.40,591.27 C336.07,591.60 336.15,592.44 336.58,593.13 ZM 548.58 588.13 C549.21,589.15 549.45,589.15 549.79,588.14 C550.27,586.69 549.29,585.37 548.40,586.27 C548.07,586.60 548.15,587.44 548.58,588.13 ZM 545.58 409.13 C546.21,410.15 546.45,410.15 546.79,409.14 C547.27,407.69 546.29,406.37 545.40,407.27 C545.07,407.60 545.15,408.44 545.58,409.13 ZM 433.00 526.00 C433.00,526.55 433.45,527.00 434.00,527.00 C434.55,527.00 435.00,526.55 435.00,526.00 C435.00,525.45 434.55,525.00 434.00,525.00 C433.45,525.00 433.00,525.45 433.00,526.00 ZM 423.00 566.00 C423.00,566.55 423.45,567.00 424.00,567.00 C424.55,567.00 425.00,566.55 425.00,566.00 C425.00,565.45 424.55,565.00 424.00,565.00 C423.45,565.00 423.00,565.45 423.00,566.00 ZM 463.00 590.00 C463.00,590.55 463.45,591.00 464.00,591.00 C464.55,591.00 465.00,590.55 465.00,590.00 C465.00,589.45 464.55,589.00 464.00,589.00 C463.45,589.00 463.00,589.45 463.00,590.00 ZM 740.00 315.00 C740.00,315.55 740.45,316.00 741.00,316.00 C741.55,316.00 742.00,315.55 742.00,315.00 C742.00,314.45 741.55,314.00 741.00,314.00 C740.45,314.00 740.00,314.45 740.00,315.00 ZM 552.00 375.00 C552.00,375.55 552.45,376.00 553.00,376.00 C553.55,376.00 554.00,375.55 554.00,375.00 C554.00,374.45 553.55,374.00 553.00,374.00 C552.45,374.00 552.00,374.45 552.00,375.00 ZM 412.00 408.00 C412.00,408.55 412.45,409.00 413.00,409.00 C413.55,409.00 414.00,408.55 414.00,408.00 C414.00,407.45 413.55,407.00 413.00,407.00 C412.45,407.00 412.00,407.45 412.00,408.00 ZM 604.00 432.00 C604.00,432.55 604.45,433.00 605.00,433.00 C605.55,433.00 606.00,432.55 606.00,432.00 C606.00,431.45 605.55,431.00 605.00,431.00 C604.45,431.00 604.00,431.45 604.00,432.00 Z" fill="rgb(235,234,193)"/>
<path d="M 531.34 628.43 C530.57,626.44 532.12,624.84 533.79,625.87 C535.15,626.71 534.41,630.00 532.86,630.00 C532.35,630.00 531.67,629.29 531.34,628.43 ZM 547.75 596.80 C547.20,595.20 548.99,591.00 550.22,591.00 C551.53,591.00 550.72,597.28 549.35,597.72 C548.72,597.93 548.00,597.52 547.75,596.80 ZM 525.00 593.27 C525.00,590.78 526.54,589.45 527.55,591.08 C527.93,591.69 527.51,592.92 526.62,593.81 C525.13,595.30 525.00,595.26 525.00,593.27 ZM 336.58 593.13 C336.15,592.44 336.07,591.60 336.40,591.27 C337.29,590.37 338.27,591.69 337.79,593.14 C337.45,594.15 337.21,594.15 336.58,593.13 ZM 316.67 591.33 C315.71,590.38 315.84,589.00 316.89,589.00 C317.38,589.00 318.05,589.67 318.36,590.50 C318.95,592.02 317.88,592.55 316.67,591.33 ZM 355.67 590.87 C354.62,590.27 352.26,590.10 350.17,590.48 C344.95,591.44 347.27,589.64 354.00,587.50 C357.02,586.54 360.43,584.91 361.56,583.87 C363.68,581.95 368.00,581.29 368.00,582.89 C368.00,583.38 366.88,584.07 365.50,584.41 C362.24,585.23 362.31,587.57 365.64,589.32 C367.20,590.14 367.84,590.98 367.21,591.37 C366.62,591.73 365.86,591.58 365.51,591.02 C364.70,589.71 360.31,589.70 359.50,591.00 C358.73,592.25 357.99,592.22 355.67,590.87 ZM 463.00 590.00 C463.00,589.45 463.45,589.00 464.00,589.00 C464.55,589.00 465.00,589.45 465.00,590.00 C465.00,590.55 464.55,591.00 464.00,591.00 C463.45,591.00 463.00,590.55 463.00,590.00 ZM 471.99 588.99 C470.69,588.19 470.72,587.85 472.21,586.36 C473.83,584.74 473.96,584.74 474.60,586.39 C475.47,588.66 473.93,590.19 471.99,588.99 ZM 288.53 588.06 C287.57,586.49 288.84,585.00 291.13,585.00 C292.51,585.00 293.04,585.55 292.81,586.74 C292.43,588.73 289.51,589.63 288.53,588.06 ZM 548.58 588.13 C548.15,587.44 548.07,586.60 548.40,586.27 C549.29,585.37 550.27,586.69 549.79,588.14 C549.45,589.15 549.21,589.15 548.58,588.13 ZM 529.20 585.80 C528.54,585.14 528.00,583.11 528.00,581.30 C528.00,576.61 530.51,577.05 531.76,581.95 C533.01,586.87 531.91,588.51 529.20,585.80 ZM 275.67 580.33 C275.30,579.97 275.00,579.01 275.00,578.21 C275.00,577.03 275.28,576.99 276.50,578.00 C277.33,578.68 278.00,579.64 278.00,580.12 C278.00,581.16 276.62,581.28 275.67,580.33 ZM 386.58 580.13 C386.01,579.20 389.71,575.38 390.47,576.13 C390.72,576.38 390.66,577.58 390.34,578.79 C389.77,581.00 387.59,581.77 386.58,580.13 ZM 392.75 572.81 C395.06,570.49 396.66,570.85 395.65,573.46 C395.33,574.31 394.05,575.00 392.81,575.00 L 390.56 575.00 L 392.75 572.81 ZM 268.67 573.33 C268.30,572.97 268.00,571.76 268.00,570.66 C268.00,569.56 267.31,567.89 266.46,566.95 C265.07,565.42 265.07,565.19 266.46,564.65 C267.35,564.31 268.00,564.60 268.00,565.34 C268.00,566.05 269.35,567.92 271.00,569.50 C272.65,571.08 274.00,572.74 274.00,573.19 C274.00,574.16 269.62,574.28 268.67,573.33 ZM 489.50 570.59 C493.07,565.91 495.45,565.04 494.56,568.74 C493.80,571.89 491.47,574.00 488.76,574.00 C487.09,574.00 487.17,573.65 489.50,570.59 ZM 383.65 571.47 C384.60,569.01 387.92,567.62 388.60,569.41 C389.44,571.60 388.22,573.00 385.47,573.00 C383.72,573.00 383.22,572.58 383.65,571.47 ZM 415.31 571.36 C413.30,570.54 415.06,568.00 417.64,568.00 C419.76,568.00 419.93,568.26 419.00,570.00 C417.91,572.04 417.42,572.22 415.31,571.36 ZM 423.00 566.00 C423.00,565.45 423.45,565.00 424.00,565.00 C424.55,565.00 425.00,565.45 425.00,566.00 C425.00,566.55 424.55,567.00 424.00,567.00 C423.45,567.00 423.00,566.55 423.00,566.00 ZM 538.00 566.19 C538.00,565.65 538.71,564.94 539.58,564.61 C540.56,564.23 541.01,564.46 540.77,565.19 C540.27,566.68 538.00,567.50 538.00,566.19 ZM 396.91 558.17 C397.45,557.16 398.59,555.76 399.43,555.06 C400.71,554.00 401.08,554.05 401.60,555.39 C402.60,558.00 401.25,560.00 398.50,560.00 C396.32,560.00 396.08,559.72 396.91,558.17 ZM 252.41 548.58 C252.72,547.44 252.98,545.94 252.99,545.25 C253.02,542.44 254.61,544.25 254.82,547.33 C254.98,549.81 254.63,550.67 253.45,550.67 C252.32,550.67 252.02,550.06 252.41,548.58 ZM 503.00 548.00 C503.00,547.45 503.70,547.00 504.56,547.00 C505.42,547.00 505.84,547.45 505.50,548.00 C505.16,548.55 504.46,549.00 503.94,549.00 C503.42,549.00 503.00,548.55 503.00,548.00 ZM 459.50 547.00 C459.84,546.45 461.10,546.01 462.31,546.02 C464.09,546.03 464.22,546.21 463.00,547.00 C461.03,548.27 458.71,548.27 459.50,547.00 ZM 546.54 542.75 C547.54,538.07 548.13,537.46 549.65,539.54 C551.37,541.89 551.35,542.51 549.43,544.43 C546.89,546.97 545.77,546.33 546.54,542.75 ZM 342.13 542.31 C341.20,541.30 341.09,540.51 341.80,539.80 C343.04,538.56 345.00,539.59 345.00,541.50 C345.00,543.59 343.66,543.97 342.13,542.31 ZM 468.61 541.58 C468.94,540.71 469.65,540.00 470.19,540.00 C471.50,540.00 470.68,542.27 469.19,542.77 C468.46,543.01 468.23,542.56 468.61,541.58 ZM 540.00 541.44 C540.00,540.58 540.45,540.16 541.00,540.50 C541.55,540.84 542.00,541.54 542.00,542.06 C542.00,542.58 541.55,543.00 541.00,543.00 C540.45,543.00 540.00,542.30 540.00,541.44 ZM 252.75 539.78 C250.40,536.84 250.51,535.06 253.00,535.71 C254.42,536.08 255.00,537.07 255.00,539.12 C255.00,542.56 254.98,542.57 252.75,539.78 ZM 334.00 541.00 C335.97,539.73 338.29,539.73 337.50,541.00 C337.16,541.55 335.90,541.99 334.69,541.98 C332.91,541.97 332.78,541.79 334.00,541.00 ZM 410.63 537.75 C409.72,534.34 409.84,534.00 412.00,534.00 C413.56,534.00 414.00,534.67 414.00,537.00 C414.00,540.57 411.53,541.12 410.63,537.75 ZM 780.50 538.69 C779.40,538.04 778.37,537.44 778.21,537.37 C778.05,537.31 778.66,535.39 779.57,533.12 C780.69,530.33 781.83,529.00 783.11,529.00 C785.42,529.00 785.48,529.86 783.40,532.84 C782.51,534.10 782.00,536.23 782.26,537.57 C782.51,538.91 782.67,539.97 782.61,539.94 C782.55,539.91 781.60,539.35 780.50,538.69 ZM 358.55 538.08 C357.62,536.58 360.80,534.13 364.58,533.42 C369.36,532.52 369.98,533.56 365.73,535.34 C363.81,536.14 361.94,537.29 361.56,537.90 C360.73,539.24 359.32,539.33 358.55,538.08 ZM 416.64 535.90 C415.79,534.68 415.37,533.18 415.72,532.59 C417.93,528.83 421.37,525.11 422.18,525.61 C422.72,525.94 422.38,527.02 421.41,528.10 C420.47,529.14 419.60,531.59 419.48,533.53 C419.20,538.11 418.56,538.64 416.64,535.90 ZM 295.75 534.76 C295.15,532.94 298.64,529.65 300.44,530.34 C302.82,531.25 302.31,532.79 299.08,534.46 C296.88,535.60 296.06,535.67 295.75,534.76 ZM 513.31 535.20 C511.94,534.34 511.85,528.00 513.21,528.00 C513.71,528.00 513.86,528.41 513.55,528.91 C513.24,529.42 513.48,529.99 514.08,530.19 C514.68,530.39 515.02,531.77 514.84,533.25 C514.61,535.04 514.10,535.70 513.31,535.20 ZM 480.47 533.95 C479.52,532.41 480.82,531.42 482.10,532.70 C482.82,533.42 482.84,533.98 482.16,534.40 C481.60,534.75 480.84,534.55 480.47,533.95 ZM 354.37 531.53 C353.55,529.39 354.81,528.00 357.57,528.00 C359.76,528.00 359.89,528.21 358.78,529.98 C357.15,532.59 355.06,533.32 354.37,531.53 ZM 373.66 530.33 C372.78,529.44 375.95,526.00 377.65,526.00 C379.53,526.00 379.33,527.39 377.17,529.35 C375.15,531.17 374.65,531.32 373.66,530.33 ZM 603.64 527.50 C603.32,526.67 603.50,526.00 604.03,526.00 C604.56,526.00 605.31,525.99 605.69,525.97 C606.07,525.96 606.48,526.63 606.60,527.47 C606.89,529.44 604.39,529.47 603.64,527.50 ZM 517.00 527.00 C517.00,526.45 517.67,526.00 518.50,526.00 C519.33,526.00 520.00,526.45 520.00,527.00 C520.00,527.55 519.33,528.00 518.50,528.00 C517.67,528.00 517.00,527.55 517.00,527.00 ZM 554.25 527.34 C552.82,526.76 552.55,525.00 553.89,525.00 C554.38,525.00 555.05,525.67 555.36,526.50 C555.68,527.33 555.84,527.96 555.72,527.92 C555.60,527.88 554.94,527.62 554.25,527.34 ZM 293.00 526.00 C293.00,525.45 293.70,525.00 294.56,525.00 C295.42,525.00 295.84,525.45 295.50,526.00 C295.16,526.55 294.46,527.00 293.94,527.00 C293.42,527.00 293.00,526.55 293.00,526.00 ZM 380.00 525.50 C378.68,523.91 379.66,523.55 382.41,524.60 C383.28,524.94 383.74,525.61 383.44,526.10 C382.63,527.42 381.41,527.20 380.00,525.50 ZM 433.00 526.00 C433.00,525.45 433.45,525.00 434.00,525.00 C434.55,525.00 435.00,525.45 435.00,526.00 C435.00,526.55 434.55,527.00 434.00,527.00 C433.45,527.00 433.00,526.55 433.00,526.00 ZM 525.18 523.83 C525.65,520.63 528.00,520.28 528.00,523.42 C528.00,525.10 527.45,526.00 526.43,526.00 C525.39,526.00 524.97,525.27 525.18,523.83 ZM 696.58 523.25 C697.14,520.78 704.84,512.51 705.75,513.41 C705.95,513.62 705.46,515.35 704.67,517.26 C703.71,519.55 702.33,520.95 700.61,521.38 C699.18,521.74 698.06,522.36 698.12,522.77 C698.41,524.60 697.91,526.00 696.98,526.00 C696.39,526.00 696.22,524.86 696.58,523.25 ZM 574.17 517.44 C574.15,512.06 574.48,509.99 575.32,510.27 C577.24,510.91 577.94,519.11 576.35,522.25 C575.58,523.76 574.78,525.00 574.57,525.00 C574.37,525.00 574.18,521.60 574.17,517.44 ZM 284.75 522.31 C283.19,521.90 282.15,519.00 283.57,519.00 C284.87,519.00 288.00,521.14 288.00,522.04 C288.00,523.04 287.65,523.07 284.75,522.31 ZM 529.00 519.12 C529.00,517.86 531.94,515.60 532.65,516.31 C533.67,517.34 532.14,520.00 530.53,520.00 C529.69,520.00 529.00,519.61 529.00,519.12 ZM 433.51 518.02 C433.11,517.36 433.22,516.38 433.77,515.83 C435.08,514.52 436.11,516.20 435.06,517.90 C434.44,518.90 434.07,518.93 433.51,518.02 ZM 593.67 518.33 C592.62,517.29 592.89,513.00 594.00,513.00 C594.55,513.00 595.00,514.35 595.00,516.00 C595.00,519.11 594.80,519.46 593.67,518.33 ZM 393.31 512.00 C393.60,508.98 395.01,504.02 396.43,501.00 C398.67,496.26 398.94,495.98 398.40,499.00 C398.05,500.92 396.92,504.27 395.88,506.44 C393.80,510.80 393.53,512.67 394.93,513.17 C395.44,513.35 395.16,514.40 394.31,515.50 C392.88,517.36 392.80,517.11 393.31,512.00 ZM 534.00 513.11 C534.00,510.83 536.49,509.64 537.77,511.31 C540.21,514.47 540.10,515.00 537.06,515.00 C534.72,515.00 534.00,514.55 534.00,513.11 ZM 248.44 510.72 C247.50,508.26 249.05,506.33 250.24,508.47 C250.88,509.61 250.85,510.55 250.14,511.26 C249.38,512.02 248.89,511.87 248.44,510.72 ZM 793.00 507.57 C793.00,506.71 793.91,505.09 795.02,503.98 C796.84,502.16 797.11,502.12 797.68,503.61 C798.03,504.53 797.86,506.00 797.30,506.89 C795.92,509.08 793.00,509.55 793.00,507.57 ZM 557.12 506.22 C556.51,505.08 556.53,503.80 557.18,502.64 C558.14,500.93 558.28,500.95 559.69,502.96 C561.21,505.14 560.86,508.00 559.07,508.00 C558.52,508.00 557.64,507.20 557.12,506.22 ZM 402.00 504.53 C402.00,503.64 402.59,503.29 403.50,503.64 C404.33,503.95 405.00,504.62 405.00,505.11 C405.00,505.60 404.33,506.00 403.50,506.00 C402.67,506.00 402.00,505.34 402.00,504.53 ZM 591.74 499.40 C590.83,498.50 592.08,495.93 593.10,496.56 C593.60,496.87 594.00,497.77 594.00,498.56 C594.00,500.03 592.81,500.48 591.74,499.40 ZM 254.04 495.55 C252.40,493.57 253.50,490.76 255.75,491.19 C256.84,491.40 257.50,492.44 257.50,493.93 C257.50,496.83 255.77,497.63 254.04,495.55 ZM 277.00 495.23 C277.00,494.17 277.94,492.46 279.08,491.43 C281.15,489.55 281.16,489.56 280.83,493.01 C280.47,496.84 277.00,498.84 277.00,495.23 ZM 542.43 495.89 C541.57,494.49 544.17,492.77 545.35,493.95 C546.32,494.92 545.39,497.00 544.00,497.00 C543.51,497.00 542.81,496.50 542.43,495.89 ZM 548.00 494.50 C548.00,493.67 548.45,493.00 549.00,493.00 C549.55,493.00 550.00,493.67 550.00,494.50 C550.00,495.33 549.55,496.00 549.00,496.00 C548.45,496.00 548.00,495.33 548.00,494.50 ZM 286.20 492.80 C284.51,491.11 284.71,488.00 286.50,488.00 C287.50,488.00 288.00,489.00 288.00,491.00 C288.00,494.37 287.89,494.49 286.20,492.80 ZM 595.38 489.55 C594.69,487.75 595.81,485.76 597.07,486.54 C598.34,487.33 598.25,491.00 596.97,491.00 C596.40,491.00 595.69,490.35 595.38,489.55 ZM 336.76 487.38 C333.69,485.77 329.77,479.59 332.47,480.63 C334.91,481.56 341.23,487.74 340.32,488.30 C339.87,488.58 338.26,488.17 336.76,487.38 ZM 347.35 487.46 C347.02,486.61 347.00,485.66 347.31,485.36 C348.19,484.48 350.00,485.97 350.00,487.56 C350.00,489.48 348.09,489.40 347.35,487.46 ZM 766.98 476.75 C766.97,471.66 766.53,463.36 766.00,458.30 C765.03,449.09 765.33,446.00 767.22,446.00 C767.85,446.00 767.97,447.69 767.56,450.46 C767.11,453.45 767.40,456.42 768.45,459.49 C770.00,464.06 770.65,481.15 769.39,484.42 C767.92,488.25 767.00,485.31 766.98,476.75 ZM 282.69 482.64 C282.39,481.84 282.95,480.45 283.94,479.55 C285.48,478.16 285.84,478.13 286.31,479.36 C286.61,480.16 286.05,481.55 285.06,482.45 C283.52,483.84 283.16,483.87 282.69,482.64 ZM 550.72 481.99 C548.19,479.04 548.62,477.71 551.50,479.59 C552.88,480.49 554.00,481.85 554.00,482.62 C554.00,484.58 552.73,484.33 550.72,481.99 ZM 587.43 478.25 C586.34,475.68 586.11,473.71 586.69,472.00 C588.12,467.83 589.10,469.17 589.45,475.75 C589.64,479.19 589.62,482.00 589.41,482.00 C589.20,482.00 588.31,480.31 587.43,478.25 ZM 607.75 480.75 C606.62,477.65 608.97,476.07 611.94,477.94 C613.13,478.69 613.15,479.12 612.06,480.42 C610.49,482.32 608.39,482.47 607.75,480.75 ZM 434.00 480.49 C434.00,479.56 436.48,475.52 437.50,474.77 C439.42,473.35 440.30,474.01 438.81,475.75 C437.98,476.71 437.02,478.29 436.68,479.25 C436.13,480.81 434.00,481.79 434.00,480.49 ZM 798.62 479.17 C798.18,477.90 798.08,476.58 798.41,476.26 C799.45,475.22 800.17,476.75 799.79,479.16 L 799.43 481.50 L 798.62 479.17 ZM 503.00 476.65 C503.00,475.74 503.51,475.00 504.14,475.00 C504.77,475.00 505.82,474.26 506.49,473.35 C507.15,472.44 508.21,472.01 508.85,472.41 C510.55,473.46 510.24,475.00 508.33,475.00 C507.41,475.00 505.83,475.74 504.83,476.65 C503.13,478.19 503.00,478.19 503.00,476.65 ZM 567.25 475.26 C565.75,474.75 565.58,471.38 567.01,470.50 C568.16,469.78 569.33,472.20 568.83,474.29 C568.65,475.06 567.94,475.50 567.25,475.26 ZM 616.00 474.50 C616.00,472.93 617.74,472.58 620.41,473.60 C622.63,474.46 621.36,476.00 618.44,476.00 C616.94,476.00 616.00,475.42 616.00,474.50 ZM 730.17 472.84 C730.35,471.55 731.17,470.50 732.00,470.50 C734.17,470.50 733.87,474.40 731.67,474.83 C730.25,475.10 729.91,474.65 730.17,472.84 ZM 698.00 472.58 C698.00,471.71 698.71,471.00 699.58,471.00 C700.45,471.00 700.99,471.53 700.77,472.19 C700.15,474.04 698.00,474.35 698.00,472.58 ZM 318.13 471.08 C316.37,469.99 317.52,466.33 320.05,464.97 C321.77,464.05 321.93,464.26 321.61,467.05 C321.17,470.79 319.95,472.21 318.13,471.08 ZM 263.00 466.69 C263.00,464.97 263.54,464.00 264.50,464.00 C266.37,464.00 266.36,464.94 264.47,467.44 C263.06,469.30 263.00,469.27 263.00,466.69 ZM 699.63 467.49 C699.28,466.58 699.00,464.71 699.00,463.33 C699.00,459.91 701.41,460.86 701.83,464.45 C702.21,467.73 700.59,469.98 699.63,467.49 ZM 565.53 463.05 C564.65,461.63 565.77,460.00 567.63,460.00 C568.51,460.00 569.01,460.70 568.82,461.67 C568.43,463.68 566.44,464.52 565.53,463.05 ZM 705.56 461.38 C704.83,458.48 705.31,457.46 706.93,458.46 C708.22,459.25 708.37,464.00 707.11,464.00 C706.62,464.00 705.92,462.82 705.56,461.38 ZM 494.00 460.50 C494.00,459.67 494.67,459.00 495.50,459.00 C496.33,459.00 497.00,459.67 497.00,460.50 C497.00,461.33 496.33,462.00 495.50,462.00 C494.67,462.00 494.00,461.33 494.00,460.50 ZM 485.00 454.50 C485.00,453.47 485.66,452.98 486.75,453.19 C488.86,453.60 488.72,455.37 486.55,455.82 C485.65,456.01 485.00,455.46 485.00,454.50 ZM 733.00 454.00 C733.59,452.90 734.28,452.00 734.54,452.00 C734.79,452.00 735.00,452.90 735.00,454.00 C735.00,455.13 734.33,456.00 733.46,456.00 C732.24,456.00 732.15,455.60 733.00,454.00 ZM 526.64 453.50 C526.95,452.67 527.62,452.00 528.11,452.00 C528.60,452.00 529.00,452.67 529.00,453.50 C529.00,454.33 528.34,455.00 527.53,455.00 C526.64,455.00 526.29,454.41 526.64,453.50 ZM 699.00 451.12 C699.00,448.12 699.41,447.00 700.50,447.00 C701.49,447.00 702.00,447.99 702.00,449.88 C702.00,451.46 701.33,453.32 700.50,454.00 C699.21,455.07 699.00,454.67 699.00,451.12 ZM 325.00 452.53 C325.00,451.64 325.59,451.29 326.50,451.64 C327.33,451.95 328.00,452.62 328.00,453.11 C328.00,453.60 327.33,454.00 326.50,454.00 C325.67,454.00 325.00,453.34 325.00,452.53 ZM 363.76 451.50 C364.31,448.62 365.50,448.25 366.43,450.67 C366.78,451.59 366.49,452.71 365.78,453.15 C363.68,454.49 363.25,454.14 363.76,451.50 ZM 264.00 451.06 C264.00,449.23 265.67,447.34 266.53,448.19 C267.21,448.88 265.81,453.00 264.88,453.00 C264.40,453.00 264.00,452.13 264.00,451.06 ZM 445.17 451.34 C445.59,449.15 448.50,448.84 448.50,450.99 C448.50,451.80 447.67,452.63 446.66,452.83 C445.32,453.08 444.92,452.68 445.17,451.34 ZM 801.00 450.56 C801.00,449.77 801.45,448.84 802.00,448.50 C802.55,448.16 803.00,448.81 803.00,449.94 C803.00,451.07 802.55,452.00 802.00,452.00 C801.45,452.00 801.00,451.35 801.00,450.56 ZM 477.69 449.07 C477.98,447.97 478.77,447.36 479.54,447.65 C481.16,448.28 480.31,451.00 478.49,451.00 C477.70,451.00 477.38,450.25 477.69,449.07 ZM 356.64 447.50 C356.95,446.67 357.62,446.00 358.11,446.00 C358.60,446.00 359.00,446.67 359.00,447.50 C359.00,448.33 358.34,449.00 357.53,449.00 C356.64,449.00 356.29,448.41 356.64,447.50 ZM 394.59 445.50 C393.72,444.17 393.00,442.12 393.00,440.96 L 393.00 438.85 L 395.56 440.87 C396.97,441.98 398.77,442.64 399.56,442.34 C401.30,441.67 401.35,442.80 399.71,445.50 C398.00,448.32 396.44,448.32 394.59,445.50 ZM 532.00 444.87 C532.00,442.18 533.65,440.00 535.70,440.00 C537.79,440.00 537.20,442.46 534.50,445.00 L 532.00 447.35 L 532.00 444.87 ZM 525.00 441.00 C525.00,439.65 525.67,439.00 527.05,439.00 C528.43,439.00 529.45,438.02 530.15,436.00 C531.13,433.19 532.86,432.19 534.29,433.62 C534.89,434.23 526.74,443.00 525.58,443.00 C525.26,443.00 525.00,442.10 525.00,441.00 ZM 600.65 440.01 C600.32,438.37 600.35,436.26 600.70,435.33 C601.28,433.82 601.43,433.84 602.10,435.57 C603.16,438.27 603.17,443.00 602.12,443.00 C601.64,443.00 600.98,441.65 600.65,440.01 ZM 286.00 440.91 C286.00,438.85 285.79,438.40 283.75,436.24 C282.14,434.52 281.91,433.69 282.79,432.81 C283.68,431.92 284.81,432.53 287.53,435.33 C289.50,437.36 290.87,439.41 290.57,439.89 C289.80,441.14 286.00,441.99 286.00,440.91 ZM 347.00 440.12 C347.00,438.68 349.83,436.78 350.96,437.47 C352.98,438.72 352.04,441.00 349.50,441.00 C348.12,441.00 347.00,440.61 347.00,440.12 ZM 396.22 435.15 C394.45,434.04 395.79,431.00 398.05,431.00 C400.30,431.00 401.20,432.31 400.40,434.41 C399.73,436.15 398.21,436.42 396.22,435.15 ZM 604.00 432.00 C604.00,431.45 604.45,431.00 605.00,431.00 C605.55,431.00 606.00,431.45 606.00,432.00 C606.00,432.55 605.55,433.00 605.00,433.00 C604.45,433.00 604.00,432.55 604.00,432.00 ZM 404.00 425.50 C404.00,424.67 404.45,424.00 405.00,424.00 C405.55,424.00 406.00,424.67 406.00,425.50 C406.00,426.33 405.55,427.00 405.00,427.00 C404.45,427.00 404.00,426.33 404.00,425.50 ZM 582.42 424.49 C583.05,421.01 583.78,420.27 584.57,422.33 C584.92,423.23 584.47,424.68 583.56,425.59 C582.04,427.10 581.96,427.02 582.42,424.49 ZM 394.47 423.96 C393.67,422.67 395.90,419.82 397.11,420.57 C397.60,420.87 398.00,421.99 398.00,423.06 C398.00,425.11 395.57,425.73 394.47,423.96 ZM 529.64 422.31 C528.40,421.07 529.02,418.00 530.50,418.00 C531.33,418.00 532.00,418.87 532.00,419.94 C532.00,422.03 530.68,423.35 529.64,422.31 ZM 799.17 418.94 C799.60,415.97 801.77,415.25 801.62,418.13 C801.55,419.34 800.90,420.53 800.17,420.78 C799.26,421.08 798.94,420.49 799.17,418.94 ZM 408.00 417.62 C408.00,415.93 410.44,413.77 411.34,414.68 C412.83,416.16 411.95,419.00 410.00,419.00 C408.90,419.00 408.00,418.38 408.00,417.62 ZM 532.00 415.56 C532.00,413.49 534.07,412.50 535.06,414.10 C535.56,414.91 535.42,415.75 534.70,416.21 C532.88,417.36 532.00,417.15 532.00,415.56 ZM 524.62 414.92 C524.37,414.14 524.18,412.83 524.20,412.00 C524.22,411.17 523.89,409.65 523.46,408.61 C522.89,407.23 523.05,406.85 524.06,407.19 C525.75,407.75 527.22,414.14 525.97,415.42 C525.42,415.97 524.89,415.77 524.62,414.92 ZM 735.28 414.65 C735.83,413.01 738.00,412.69 738.00,414.25 C738.00,415.03 737.31,415.67 736.47,415.67 C735.63,415.67 735.10,415.21 735.28,414.65 ZM 395.00 409.00 C395.00,408.45 395.67,408.00 396.50,408.00 C397.33,408.00 398.00,408.45 398.00,409.00 C398.00,409.55 397.33,410.00 396.50,410.00 C395.67,410.00 395.00,409.55 395.00,409.00 ZM 545.58 409.13 C545.15,408.44 545.07,407.60 545.40,407.27 C546.29,406.37 547.27,407.69 546.79,409.14 C546.45,410.15 546.21,410.15 545.58,409.13 ZM 412.00 408.00 C412.00,407.45 412.45,407.00 413.00,407.00 C413.55,407.00 414.00,407.45 414.00,408.00 C414.00,408.55 413.55,409.00 413.00,409.00 C412.45,409.00 412.00,408.55 412.00,408.00 ZM 775.63 406.30 C774.43,405.09 775.01,403.28 777.45,400.65 C780.45,397.41 781.36,397.29 780.43,400.25 C779.50,403.23 776.43,407.10 775.63,406.30 ZM 509.07 404.12 C506.41,403.64 505.47,402.88 504.90,400.75 C504.01,397.40 505.81,397.03 508.50,400.00 C509.50,401.10 510.92,402.00 511.65,402.00 C512.39,402.00 513.00,402.67 513.00,403.50 C513.00,404.33 512.89,404.94 512.75,404.87 C512.61,404.80 510.96,404.46 509.07,404.12 ZM 401.00 403.11 C401.00,402.62 401.67,401.95 402.50,401.64 C403.41,401.29 404.00,401.64 404.00,402.53 C404.00,403.34 403.33,404.00 402.50,404.00 C401.67,404.00 401.00,403.60 401.00,403.11 ZM 392.74 401.40 C391.80,400.46 393.07,398.00 394.50,398.00 C395.58,398.00 397.00,400.04 397.00,401.58 C397.00,402.23 393.41,402.08 392.74,401.40 ZM 613.00 396.12 C613.00,395.09 613.67,393.68 614.50,393.00 C615.72,391.99 616.00,392.04 616.00,393.30 C616.00,395.57 614.91,398.00 613.89,398.00 C613.40,398.00 613.00,397.16 613.00,396.12 ZM 428.38 394.54 C428.07,393.73 428.79,391.71 429.97,390.04 C432.32,386.74 434.66,385.89 433.50,388.75 C433.11,389.71 432.35,391.74 431.80,393.25 C430.71,396.27 429.25,396.81 428.38,394.54 ZM 781.00 394.96 C781.00,392.70 785.13,386.00 786.52,386.00 C788.45,386.00 788.43,387.62 786.50,388.36 C785.67,388.68 785.00,389.99 785.00,391.27 C785.00,393.57 783.36,396.00 781.80,396.00 C781.36,396.00 781.00,395.53 781.00,394.96 ZM 594.14 390.67 C593.28,389.64 593.19,388.57 593.83,387.33 C594.36,386.32 595.29,384.24 595.90,382.69 C596.51,381.15 597.46,380.16 598.00,380.50 C599.34,381.33 599.28,386.71 597.93,387.54 C597.34,387.91 596.53,389.10 596.13,390.19 C595.48,391.93 595.24,391.99 594.14,390.67 ZM 412.19 389.94 C412.43,389.22 413.22,388.43 413.94,388.19 C414.69,387.94 415.06,388.31 414.81,389.06 C414.57,389.78 413.78,390.57 413.06,390.81 C412.31,391.06 411.94,390.69 412.19,389.94 ZM 396.51 383.02 C396.11,382.36 396.22,381.38 396.77,380.83 C398.08,379.52 399.11,381.20 398.06,382.90 C397.44,383.90 397.07,383.93 396.51,383.02 ZM 801.35 381.46 C801.02,380.61 801.00,379.66 801.31,379.36 C802.19,378.48 804.00,379.97 804.00,381.56 C804.00,383.48 802.09,383.40 801.35,381.46 ZM 511.56 381.10 C511.26,380.61 511.65,379.97 512.42,379.67 C513.20,379.37 514.08,379.77 514.39,380.56 C514.98,382.12 512.49,382.60 511.56,381.10 ZM 784.69 379.36 C783.56,378.23 785.05,377.00 787.56,377.00 C789.06,377.00 790.00,377.58 790.00,378.50 C790.00,380.00 785.98,380.65 784.69,379.36 ZM 518.56 378.09 C517.75,376.78 518.91,374.25 520.62,373.59 C522.56,372.85 523.54,375.64 521.99,377.51 C520.58,379.21 519.37,379.41 518.56,378.09 ZM 395.00 374.54 C395.00,372.48 398.90,370.50 400.26,371.86 C401.00,372.60 400.93,373.38 400.04,374.46 C398.41,376.42 395.00,376.47 395.00,374.54 ZM 416.19 375.22 C412.93,374.69 413.75,371.59 417.26,371.18 C419.44,370.93 420.00,371.28 420.00,372.87 C420.00,375.27 419.26,375.73 416.19,375.22 ZM 552.00 375.00 C552.00,374.45 552.45,374.00 553.00,374.00 C553.55,374.00 554.00,374.45 554.00,375.00 C554.00,375.55 553.55,376.00 553.00,376.00 C552.45,376.00 552.00,375.55 552.00,375.00 ZM 793.00 374.57 C793.00,373.48 793.95,373.00 796.08,373.00 C799.91,373.00 799.57,375.36 795.67,375.82 C793.78,376.04 793.00,375.68 793.00,374.57 ZM 511.44 373.90 C510.56,372.48 513.48,369.56 514.91,370.44 C515.68,370.92 515.70,371.70 514.97,373.06 C513.81,375.23 512.46,375.55 511.44,373.90 ZM 546.54 370.07 C545.80,368.87 547.68,367.69 549.02,368.51 C550.13,369.20 549.40,371.00 548.00,371.00 C547.51,371.00 546.86,370.58 546.54,370.07 ZM 627.25 366.54 C624.64,363.93 624.40,362.44 626.47,361.65 C628.20,360.99 628.54,361.45 629.46,365.75 C630.27,369.51 630.23,369.52 627.25,366.54 ZM 745.00 368.43 C745.00,366.83 747.26,364.00 748.54,364.00 C750.52,364.00 750.38,365.35 748.17,367.35 C746.32,369.02 745.00,369.47 745.00,368.43 ZM 734.00 366.18 C734.00,364.13 736.29,361.62 737.26,362.60 C737.58,362.91 738.60,362.01 739.54,360.59 C741.66,357.34 744.26,357.13 743.82,360.25 C743.61,361.69 742.70,362.61 741.26,362.82 C740.03,362.99 738.45,363.92 737.76,364.88 C735.68,367.76 734.00,368.34 734.00,366.18 ZM 809.06 364.58 C808.38,363.76 808.12,362.62 808.47,362.04 C809.45,360.46 812.00,360.79 812.00,362.50 C812.00,363.33 812.03,364.33 812.08,364.73 C812.22,366.14 810.28,366.04 809.06,364.58 ZM 711.73 362.40 C710.40,361.07 710.97,360.00 713.00,360.00 C714.10,360.00 715.00,360.48 715.00,361.06 C715.00,361.64 714.59,361.86 714.09,361.55 C713.58,361.24 713.01,361.47 712.81,362.06 C712.62,362.64 712.13,362.80 711.73,362.40 ZM 621.00 356.98 C619.67,356.11 619.67,355.89 621.00,355.02 C623.31,353.50 625.18,353.82 624.82,355.67 C624.42,357.75 622.95,358.26 621.00,356.98 ZM 780.00 355.58 C780.00,354.71 780.71,354.00 781.58,354.00 C782.45,354.00 782.99,354.53 782.77,355.19 C782.15,357.04 780.00,357.35 780.00,355.58 ZM 750.00 353.43 C750.00,352.04 755.31,346.08 756.11,346.57 C757.62,347.50 757.09,350.03 755.25,350.71 C754.29,351.06 753.14,351.95 752.70,352.67 C751.91,353.99 750.00,354.52 750.00,353.43 ZM 791.74 351.40 C790.49,350.16 792.31,348.00 794.61,348.00 C797.24,348.00 797.64,348.96 795.80,350.80 C794.51,352.09 792.70,352.36 791.74,351.40 ZM 713.00 348.04 C713.00,347.50 713.90,346.59 715.00,346.00 C716.70,345.09 717.00,345.24 717.00,346.96 C717.00,348.33 716.34,349.00 715.00,349.00 C713.90,349.00 713.00,348.57 713.00,348.04 ZM 798.85 347.50 C798.77,346.67 798.66,345.44 798.60,344.75 C798.54,344.06 799.33,343.64 800.35,343.82 C801.37,343.99 801.94,343.70 801.61,343.18 C801.29,342.66 801.80,342.00 802.76,341.73 C803.72,341.45 805.29,340.90 806.25,340.51 C807.47,340.00 808.00,340.25 808.00,341.33 C808.00,342.26 806.92,342.99 805.25,343.18 C803.09,343.43 802.43,344.09 802.18,346.25 C801.85,349.13 799.12,350.15 798.85,347.50 ZM 773.00 343.97 C771.70,343.10 771.76,342.76 773.44,341.48 C777.04,338.73 779.90,340.70 776.80,343.80 C775.35,345.25 774.94,345.26 773.00,343.97 ZM 785.00 342.98 C785.00,342.41 783.91,341.54 782.58,341.03 C781.20,340.50 780.01,339.13 779.83,337.84 C779.62,336.40 778.59,335.36 777.00,334.97 L 774.50 334.36 L 777.73 332.67 C780.94,330.98 780.96,330.99 781.59,333.50 C781.94,334.89 782.78,336.36 783.46,336.76 C784.64,337.47 786.46,344.00 785.47,344.00 C785.21,344.00 785.00,343.54 785.00,342.98 ZM 787.25 334.75 C787.48,334.06 788.27,333.50 789.00,333.50 C789.73,333.50 790.52,334.06 790.75,334.75 C791.00,335.49 790.29,336.00 789.00,336.00 C787.71,336.00 787.00,335.49 787.25,334.75 ZM 791.64 328.51 C791.95,327.68 792.61,327.26 793.10,327.56 C794.52,328.44 794.15,330.00 792.53,330.00 C791.64,330.00 791.29,329.41 791.64,328.51 ZM 793.74 326.41 C793.45,326.12 793.45,324.99 793.74,323.89 C794.29,321.80 797.05,321.65 797.73,323.68 C798.14,324.92 794.64,327.31 793.74,326.41 ZM 743.22 319.61 C743.36,317.95 743.90,317.42 745.14,317.75 C747.06,318.25 746.62,320.55 744.44,321.39 C743.45,321.77 743.09,321.24 743.22,319.61 ZM 817.00 317.00 C817.00,316.45 817.67,316.00 818.50,316.00 C819.33,316.00 820.00,316.45 820.00,317.00 C820.00,317.55 819.33,318.00 818.50,318.00 C817.67,318.00 817.00,317.55 817.00,317.00 ZM 740.00 315.00 C740.00,314.45 740.45,314.00 741.00,314.00 C741.55,314.00 742.00,314.45 742.00,315.00 C742.00,315.55 741.55,316.00 741.00,316.00 C740.45,316.00 740.00,315.55 740.00,315.00 ZM 748.00 310.00 C748.00,309.45 748.67,309.00 749.50,309.00 C750.33,309.00 751.00,309.45 751.00,310.00 C751.00,310.55 750.33,311.00 749.50,311.00 C748.67,311.00 748.00,310.55 748.00,310.00 ZM 756.25 309.27 C755.01,308.44 754.00,306.90 754.00,305.85 C754.00,304.80 753.33,303.68 752.50,303.36 C750.86,302.73 750.44,301.00 751.93,301.00 C752.44,301.00 753.47,301.62 754.23,302.37 C754.98,303.12 756.51,304.03 757.64,304.39 C759.02,304.83 759.65,305.83 759.56,307.47 C759.38,310.76 758.88,311.04 756.25,309.27 ZM 823.54 308.07 C822.86,306.96 824.44,305.77 825.36,306.69 C826.31,307.64 826.13,309.00 825.06,309.00 C824.54,309.00 823.86,308.58 823.54,308.07 ZM 778.43 297.89 C778.05,297.28 778.36,296.38 779.12,295.90 C781.26,294.55 782.00,294.83 782.00,297.00 C782.00,299.13 779.57,299.74 778.43,297.89 ZM 840.22 297.83 C840.46,297.10 841.75,296.35 843.08,296.16 C844.41,295.97 846.26,295.14 847.19,294.31 C849.02,292.67 851.00,293.29 851.00,295.50 C851.00,297.33 850.37,297.62 844.64,298.45 C840.82,299.00 839.88,298.87 840.22,297.83 ZM 801.18 280.44 C801.53,278.73 803.27,278.30 803.77,279.80 C803.94,280.33 803.36,281.03 802.47,281.37 C801.36,281.80 800.95,281.51 801.18,280.44 ZM 812.69 277.79 C814.81,275.45 816.00,275.52 816.00,277.99 C816.00,279.49 815.40,279.93 813.54,279.77 C811.24,279.58 811.19,279.45 812.69,277.79 ZM 821.59 273.15 C820.61,271.55 823.61,268.64 825.49,269.36 C827.20,270.01 827.20,270.12 825.48,272.02 C823.54,274.16 822.42,274.49 821.59,273.15 ZM 860.61 271.42 C860.27,270.55 860.00,268.97 860.00,267.92 C860.00,266.86 859.55,266.00 859.00,266.00 C858.45,266.00 858.02,264.76 858.04,263.25 L 858.08 260.50 L 859.67 263.50 C860.54,265.15 861.92,267.27 862.75,268.21 C864.25,269.93 863.86,273.00 862.14,273.00 C861.63,273.00 860.94,272.29 860.61,271.42 ZM 814.66 271.33 C813.24,269.91 814.13,268.39 817.00,267.31 C819.01,266.55 820.00,265.49 820.00,264.09 C820.00,262.67 820.64,262.00 822.00,262.00 C823.10,262.00 824.00,262.27 824.00,262.60 C824.00,263.83 815.30,271.97 814.66,271.33 ZM 863.52 258.75 C862.24,254.97 862.57,253.49 864.75,253.18 C866.44,252.94 867.00,253.36 867.00,254.85 C867.00,259.06 864.55,261.80 863.52,258.75 ZM 855.00 257.12 C852.47,256.07 852.80,254.00 855.50,254.00 C857.01,254.00 858.00,254.57 858.00,255.44 C858.00,257.29 856.89,257.91 855.00,257.12 ZM 844.19 255.93 C844.42,255.24 846.14,253.51 848.02,252.09 L 851.42 249.50 L 849.41 253.00 C847.49,256.31 843.27,258.69 844.19,255.93 ZM 859.00 251.56 C859.00,249.44 860.69,248.76 861.40,250.59 C862.25,252.82 862.18,253.00 860.50,253.00 C859.67,253.00 859.00,252.35 859.00,251.56 Z" fill="rgb(235,235,189)"/>
</g>
</svg>